<?xml version="1.0" encoding="utf-8"?>
<!-- Generator: Adobe Illustrator 26.2.1, SVG Export Plug-In . SVG Version: 6.00 Build 0)  -->
<svg version="1.1" id="Calque_1" xmlns="http://www.w3.org/2000/svg" xmlns:xlink="http://www.w3.org/1999/xlink" x="0px" y="0px"
	 viewBox="0 0 317.2 186.3" style="enable-background:new 0 0 317.2 186.3;" xml:space="preserve">
<style type="text/css">
	.st0{fill:#140A67;}
	.st1{fill:#BB98F2;}
</style>
<g>
	<g>
		<g>
			<path class="st0" d="M203.3,75.4c2.1-10.5-0.6-21.3-7.3-29.6c-6.8-8.3-16.8-13-27.5-13h-31.6l-2.4,12.1h12.3h21.8
				c14.8,0,26,13.6,23,28.1c-3.5,17.1-18.5,29.4-36,29.4h-1.5l-2.4,12.1h4C178.6,114.6,198.7,98.1,203.3,75.4z"/>
			<path class="st0" d="M125.4,89.1l8.9-44.2h-0.9H122l-8.4,41.8c-0.8,3.8,0.2,7.7,2.7,10.7c2.5,3,6.1,4.7,10,4.7h27.6l2.4-12.1h-30
				C125.7,90.1,125.3,89.6,125.4,89.1z"/>
		</g>
		<path class="st1" d="M217.4,30.2c0,6.3-4.7,10.7-11.6,10.7c-6.1,0-10.1-4-10.1-9c0-5.8,4.6-10.3,11.5-10.3
			C213.3,21.5,217.4,25.3,217.4,30.2z"/>
	</g>
	<g>
		<g>
			<g>
				<path class="st1" d="M253.1,162l7.1-6.3c3-2.7,4.1-4.2,4.1-6.1c0-2.3-1.8-3.7-3.9-3.7c-2.2,0-3.7,1.2-5.3,3.4l-1.6-1.2
					c1.8-2.6,3.6-4.2,7-4.2c3.5,0,6.1,2.3,6.1,5.5v0.1c0,2.8-1.5,4.6-4.9,7.6l-5.2,4.6h7.8v2h-11.1V162z"/>
			</g>
			<g>
				<path class="st1" d="M269.6,154L269.6,154c0-5.4,4-10.2,10-10.2c6,0,9.9,4.7,9.9,10.1v0.1c0,5.4-4,10.1-10,10.1
					C273.6,164,269.6,159.3,269.6,154z M287.2,154L287.2,154c0-4.5-3.2-8.1-7.7-8.1c-4.5,0-7.7,3.6-7.7,8v0.1c0,4.4,3.2,8.1,7.7,8.1
					C284,162,287.2,158.4,287.2,154z"/>
			</g>
		</g>
		<g>
			<path class="st0" d="M69.1,138h-5v4.1h5c5.4,0,8.9,3.7,8.9,8.7v0.1c0,5-3.5,8.6-8.9,8.6h-5v-17.4h-4.5v21.5h9.5
				c8.1,0,13.6-5.6,13.6-12.8v-0.1C82.7,143.6,77.1,138,69.1,138z"/>
		</g>
		<g>
			<g>
				<path class="st0" d="M86.4,144.3h4.4v19.3h-4.4V144.3z"/>
			</g>
			<g>
				<ellipse class="st0" cx="88.7" cy="139.3" rx="2.7" ry="2.4"/>
			</g>
		</g>
		<g>
			<g>
				<path class="st0" d="M136.2,144.3h4.4v19.3h-4.4V144.3z"/>
			</g>
			<g>
				<ellipse class="st0" cx="138.4" cy="139.3" rx="2.7" ry="2.4"/>
			</g>
		</g>
		<g>
			<g>
				<path class="st0" d="M93.6,161.2l2-3c2.1,1.6,4.4,2.4,6.3,2.4c1.9,0,3-0.8,3-2.1v-0.1c0-1.5-2.1-2-4.3-2.7c-2.9-0.8-6-2-6-5.7
					V150c0-3.7,3-5.9,6.9-5.9c2.4,0,5.1,0.8,7.1,2.2l-1.8,3.2c-1.9-1.1-3.8-1.8-5.5-1.8c-1.7,0-2.7,0.8-2.7,1.9v0.1
					c0,1.4,2.1,2,4.4,2.7c2.8,0.9,6,2.2,6,5.6v0.1c0,4.1-3.2,6.1-7.2,6.1C99.1,164.1,96,163.1,93.6,161.2z"/>
			</g>
			<g>
				<path class="st0" d="M111.7,158.4v-19.3h4.4v5.3h5.2v3.8h-5.2v9.5c0,1.7,0.9,2.4,2.4,2.4c1,0,1.9-0.2,2.7-0.7v3.6
					c-1.1,0.6-2.3,1-4,1C114,164.1,111.7,162.7,111.7,158.4z"/>
			</g>
			<g>
				<path class="st0" d="M167,156.7v-12.3h4.4v11c0,3,1.5,4.7,4.1,4.7c2.6,0,4.4-1.8,4.4-4.8v-10.9h4.5v19.3h-4.5v-3
					c-1.2,1.8-3,3.4-6,3.4C169.5,164.1,167,161.2,167,156.7z"/>
			</g>
			<g>
				<path class="st0" d="M187.8,158.4v-19.3h4.4v5.3h5.2v3.8h-5.2v9.5c0,1.7,0.9,2.4,2.4,2.4c1,0,1.9-0.2,2.7-0.7v3.6
					c-1.1,0.6-2.3,1-4,1C190.1,164.1,187.8,162.7,187.8,158.4z"/>
			</g>
			<g>
				<path class="st0" d="M198.9,154.1L198.9,154.1c0-5.6,3.9-10.1,9.5-10.1c6.2,0,9.3,4.8,9.3,10.4c0,0.4,0,0.8-0.1,1.2h-14.2
					c0.5,3.2,2.7,4.9,5.6,4.9c2.2,0,3.7-0.8,5.2-2.3l2.6,2.3c-1.8,2.2-4.4,3.6-7.9,3.6C203.2,164.1,198.9,160,198.9,154.1z
					 M213.2,152.6c-0.3-2.9-2-5.1-4.9-5.1c-2.7,0-4.6,2.1-5,5.1H213.2z"/>
			</g>
			<g>
				<path class="st0" d="M220.4,156.7v-12.3h4.4v11c0,3,1.5,4.7,4.1,4.7c2.6,0,4.4-1.8,4.4-4.8v-10.9h4.5v19.3h-4.5v-3
					c-1.2,1.8-3,3.4-6,3.4C222.9,164.1,220.4,161.2,220.4,156.7z"/>
			</g>
			<g>
				<g>
					<rect x="144.5" y="136.9" class="st0" width="4.4" height="17.6"/>
				</g>
				<g>
					<path class="st0" d="M154.1,164.1c-5.3,0-9.6-4.3-9.6-9.6c0-5.3,4.3-9.6,9.6-9.6c5.3,0,9.6,4.3,9.6,9.6
						C163.7,159.8,159.4,164.1,154.1,164.1z M154.1,149.3c-2.9,0-5.2,2.3-5.2,5.2c0,2.9,2.3,5.2,5.2,5.2c2.9,0,5.2-2.3,5.2-5.2
						C159.3,151.6,157,149.3,154.1,149.3z"/>
				</g>
			</g>
		</g>
		<g>
			<path class="st0" d="M128.8,163.7h-4.4v-11.8c0-4.5,3.6-8.1,8.1-8.1v4.4c-2,0-3.7,1.7-3.7,3.7V163.7z"/>
		</g>
		<g>
			<path class="st0" d="M245.9,163.7h-4.4v-11.8c0-4.5,3.6-8.1,8.1-8.1v4.4c-2,0-3.7,1.7-3.7,3.7V163.7z"/>
		</g>
		<g>
			<g>
				<path class="st0" d="M36.2,153.8L36.2,153.8c0-5.5,3.8-9.9,9.1-9.9c5.6,0,8.8,4.5,8.8,10c0,0.4,0,0.6,0,0.9h-15
					c0.4,4.1,3.3,6.4,6.7,6.4c2.6,0,4.4-1.1,6-2.7l1.8,1.6c-1.9,2.1-4.2,3.6-7.8,3.6C40.5,163.7,36.2,159.7,36.2,153.8z M51.3,152.7
					c-0.3-3.4-2.3-6.4-6-6.4c-3.3,0-5.8,2.7-6.2,6.4H51.3z"/>
			</g>
			<g>
				<g>
					<path class="st0" d="M27.3,158.3v-19.2h2.8V158c0,2.3,1.3,3.1,3.2,3.1c1,0,1.8-0.2,2.7-0.7v2.4c-1,0.5-2.1,0.8-3.4,0.8
						C29.6,163.7,27.3,162.2,27.3,158.3z"/>
				</g>
			</g>
		</g>
		<g>
			<g>
				<path class="st1" d="M266.3,161.7L266.3,161.7c0-1.1,0.9-1.9,1.9-1.9c1,0,1.9,0.8,1.9,1.9v0c0,1.1-0.9,1.9-1.9,1.9
					C267.1,163.6,266.3,162.7,266.3,161.7z"/>
			</g>
		</g>
	</g>
</g>
</svg>
